<svg xmlns="http://www.w3.org/2000/svg" width="17.979" height="17.977" viewBox="0 0 17.979 17.977"><path d="M8.917,36.2a4.609,4.609,0,1,0,4.609,4.609A4.6,4.6,0,0,0,8.917,36.2Zm0,7.6a3,3,0,1,1,3-3A3,3,0,0,1,8.917,43.809Zm5.872-7.794a1.075,1.075,0,1,1-1.075-1.075A1.072,1.072,0,0,1,14.789,36.016Zm3.052,1.091a5.32,5.32,0,0,0-1.452-3.766,5.355,5.355,0,0,0-3.766-1.452c-1.484-.084-5.932-.084-7.416,0A5.347,5.347,0,0,0,1.44,33.336,5.337,5.337,0,0,0-.012,37.1c-.084,1.484-.084,5.932,0,7.416A5.32,5.32,0,0,0,1.44,48.285a5.362,5.362,0,0,0,3.766,1.452c1.484.084,5.932.084,7.416,0a5.32,5.32,0,0,0,3.766-1.452,5.355,5.355,0,0,0,1.452-3.766C17.926,43.035,17.926,38.591,17.841,37.107Zm-1.917,9a3.033,3.033,0,0,1-1.709,1.709c-1.183.469-3.991.361-5.3.361s-4.119.1-5.3-.361a3.033,3.033,0,0,1-1.709-1.709c-.469-1.183-.361-3.991-.361-5.3s-.1-4.119.361-5.3a3.033,3.033,0,0,1,1.709-1.709c1.183-.469,3.991-.361,5.3-.361s4.119-.1,5.3.361a3.033,3.033,0,0,1,1.709,1.709c.469,1.183.361,3.991.361,5.3S16.393,44.932,15.924,46.111Z" transform="translate(0.074 -31.824)" fill="#fff"/></svg>