<svg width="150" height="48" viewBox="0 0 150 48" fill="none" xmlns="http://www.w3.org/2000/svg">
<path d="M138.832 31.6163C140.1 31.6163 141.535 31.3769 143.138 30.898V28.7429H137.935C137.576 28.7429 137.277 28.8626 137.037 29.102C136.798 29.3415 136.679 29.6408 136.679 30V30.3592C136.679 30.7184 136.798 31.0177 137.037 31.2571C137.277 31.4966 137.576 31.6163 137.935 31.6163H138.832ZM132.193 17.6082C136.571 17.1293 140.518 16.8898 144.035 16.8898C145.662 16.8898 146.965 17.3807 147.946 18.3625C148.927 19.3442 149.417 20.6493 149.417 22.2776V36.2857H143.855L143.497 34.4898C142.372 35.2321 141.212 35.7829 140.016 36.142C138.844 36.4773 137.851 36.6449 137.037 36.6449H135.782C134.155 36.6449 132.851 36.154 131.87 35.1722C130.889 34.1905 130.399 32.8854 130.399 31.2571V29.6408C130.399 28.0125 130.889 26.7075 131.87 25.7257C132.851 24.744 134.155 24.2531 135.782 24.2531H143.138V22.8163C143.138 22.4571 143.018 22.1578 142.779 21.9184C142.54 21.6789 142.241 21.5592 141.882 21.5592C140.327 21.5592 138.604 21.631 136.715 21.7747C134.849 21.9184 133.341 22.0261 132.193 22.098V17.6082Z" fill="#06D6A0"/>
<path d="M119.279 22.098C118.011 22.098 116.576 22.3374 114.973 22.8163V36.2857H108.693V17.249H114.255L114.614 19.0449C115.739 18.3026 116.887 17.7638 118.059 17.4286C119.255 17.0694 120.26 16.8898 121.073 16.8898H122.688C124.315 16.8898 125.619 17.3807 126.599 18.3625C127.58 19.3442 128.071 20.6493 128.071 22.2776V36.2857H121.791V23.3551C121.791 22.9959 121.671 22.6966 121.432 22.4571C121.193 22.2177 120.894 22.098 120.535 22.098H119.279Z" fill="#06D6A0"/>
<path d="M94.8878 31.6163C96.1557 31.6163 97.5911 31.3769 99.1939 30.898V28.7429H93.9907C93.6319 28.7429 93.3329 28.8626 93.0936 29.102C92.8544 29.3415 92.7348 29.6408 92.7348 30V30.3592C92.7348 30.7184 92.8544 31.0177 93.0936 31.2571C93.3329 31.4966 93.6319 31.6163 93.9907 31.6163H94.8878ZM88.2493 17.6082C92.6271 17.1293 96.5744 16.8898 100.091 16.8898C101.718 16.8898 103.022 17.3807 104.002 18.3625C104.983 19.3442 105.474 20.6493 105.474 22.2776V36.2857H99.9116L99.5528 34.4898C98.4284 35.2321 97.2681 35.7829 96.072 36.142C94.8998 36.4773 93.907 36.6449 93.0936 36.6449H91.8377C90.211 36.6449 88.9072 36.154 87.9263 35.1722C86.9455 34.1905 86.4551 32.8854 86.4551 31.2571V29.6408C86.4551 28.0125 86.9455 26.7075 87.9263 25.7257C88.9072 24.744 90.211 24.2531 91.8377 24.2531H99.1939V22.8163C99.1939 22.4571 99.0743 22.1578 98.8351 21.9184C98.5958 21.6789 98.2968 21.5592 97.938 21.5592C96.383 21.5592 94.6606 21.631 92.7707 21.7747C90.9047 21.9184 89.3976 22.0261 88.2493 22.098V17.6082Z" fill="#06D6A0"/>
<path d="M72.1155 28.7429V36.2857H65.8358V11.1429H72.1155V23.8939H74.9863L78.9335 17.249H85.572L80.1894 26.4082L85.572 36.2857H78.9335L74.8068 28.7429H72.1155Z" fill="#06D6A0"/>
<path d="M53.8189 22.098C52.551 22.098 51.1157 22.3374 49.5128 22.8163V36.2857H43.2332V17.249H48.7952L49.154 19.0449C50.2784 18.3026 51.4267 17.7638 52.5989 17.4286C53.795 17.0694 54.7998 16.8898 55.6131 16.8898H57.2279C58.8546 16.8898 60.1584 17.3807 61.1393 18.3625C62.1201 19.3442 62.6105 20.6493 62.6105 22.2776V36.2857H56.3308V23.3551C56.3308 22.9959 56.2112 22.6966 55.972 22.4571C55.7327 22.2177 55.4337 22.098 55.0749 22.098H53.8189Z" fill="#002922"/>
<path d="M29.4277 31.6163C30.6956 31.6163 32.1309 31.3769 33.7337 30.898V28.7429H28.5306C28.1717 28.7429 27.8727 28.8626 27.6335 29.102C27.3942 29.3415 27.2746 29.6408 27.2746 30V30.3592C27.2746 30.7184 27.3942 31.0177 27.6335 31.2571C27.8727 31.4966 28.1717 31.6163 28.5306 31.6163H29.4277ZM22.7891 17.6082C27.167 17.1293 31.1142 16.8898 34.6308 16.8898C36.2576 16.8898 37.5614 17.3807 38.5422 18.3625C39.523 19.3442 40.0134 20.6493 40.0134 22.2776V36.2857H34.4514L34.0926 34.4898C32.9682 35.2321 31.808 35.7829 30.6118 36.142C29.4396 36.4773 28.4468 36.6449 27.6335 36.6449H26.3775C24.7508 36.6449 23.447 36.154 22.4662 35.1722C21.4853 34.1905 20.9949 32.8854 20.9949 31.2571V29.6408C20.9949 28.0125 21.4853 26.7075 22.4662 25.7257C23.447 24.744 24.7508 24.2531 26.3775 24.2531H33.7337V22.8163C33.7337 22.4571 33.6141 22.1578 33.3749 21.9184C33.1357 21.6789 32.8366 21.5592 32.4778 21.5592C30.9228 21.5592 29.2004 21.631 27.3105 21.7747C25.4445 21.9184 23.9374 22.0261 22.7891 22.098V17.6082Z" fill="#002922"/>
<path d="M0.35884 31.2571C5.21514 31.6163 9.04276 31.7959 11.8417 31.7959C12.2005 31.7959 12.4996 31.6762 12.7388 31.4367C12.978 31.1973 13.0976 30.8979 13.0976 30.5388V29.2816H5.38259C3.75586 29.2816 2.45207 28.7907 1.47124 27.809C0.490414 26.8272 0 25.5222 0 23.8939V22.6367C0 21.0084 0.490414 19.7034 1.47124 18.7216C2.45207 17.7398 3.75586 17.249 5.38259 17.249H17.5831V21.9184H7.53563C7.17679 21.9184 6.87776 22.0381 6.63853 22.2775C6.39931 22.517 6.27969 22.8163 6.27969 23.1755C6.27969 23.5347 6.39931 23.834 6.63853 24.0735C6.87776 24.3129 7.17679 24.4326 7.53563 24.4326H13.9947C15.6215 24.4326 16.9253 24.9235 17.9061 25.9053C18.8869 26.8871 19.3773 28.1921 19.3773 29.8204V31.2571C19.3773 32.8854 18.8869 34.1905 17.9061 35.1722C16.9253 36.154 15.6215 36.6449 13.9947 36.6449C9.76044 36.6449 5.21514 36.4054 0.35884 35.9265V31.2571Z" fill="#002922"/>
</svg>
